<svg xmlns="http://www.w3.org/2000/svg" version="1.1" xmlns:xlink="http://www.w3.org/1999/xlink" width="150" height="150"><svg width="150" height="150" viewBox="0 0 150 150" fill="none" xmlns="http://www.w3.org/2000/svg">
<path d="M115 0C134.33 1.28852e-06 150 15.67 150 35V115C150 134.33 134.33 150 115 150H35C15.67 150 8.05375e-08 134.33 0 115V35C1.2886e-06 15.67 15.67 8.05326e-08 35 0H115ZM80.5898 95.46C77.4816 92.424 72.5184 92.424 69.4102 95.46L46.0498 118.277C40.9188 123.289 44.467 132 51.6396 132H98.3604C105.533 132 109.081 123.289 103.95 118.277L80.5898 95.46ZM31.7227 46.0498C26.7108 40.9188 18 44.467 18 51.6396V98.3604C18 105.533 26.7108 109.081 31.7227 103.95L54.54 80.5898C57.576 77.4816 57.576 72.5184 54.54 69.4102L31.7227 46.0498ZM132 51.6396C132 44.467 123.289 40.9188 118.277 46.0498L95.46 69.4102C92.424 72.5184 92.424 77.4816 95.46 80.5898L118.277 103.95C123.289 109.081 132 105.533 132 98.3604V51.6396ZM51.6396 18C44.467 18 40.9188 26.7108 46.0498 31.7227L69.4102 54.54C72.5184 57.576 77.4816 57.576 80.5898 54.54L103.95 31.7227C109.081 26.7108 105.533 18 98.3604 18H51.6396Z" fill="white"></path>
</svg><style>@media (prefers-color-scheme: light) { :root { filter: contrast(1) brightness(0.1); } }
@media (prefers-color-scheme: dark) { :root { filter: none; } }
</style></svg>