<svg width="150" height="150" viewBox="0 0 150 150" fill="none" xmlns="http://www.w3.org/2000/svg">
<path fill-rule="evenodd" clip-rule="evenodd" d="M0 35C0 15.67 15.67 0 35 0H115C134.33 0 150 15.67 150 35V115C150 134.33 134.33 150 115 150H35C15.67 150 0 134.33 0 115V35ZM69.4101 95.4599C72.5184 92.4239 77.4816 92.4239 80.5899 95.4599L103.95 118.277C109.081 123.289 105.533 132 98.3603 132H51.6397C44.467 132 40.9186 123.289 46.0497 118.277L69.4101 95.4599ZM69.4101 54.5401C72.5184 57.5761 77.4816 57.5761 80.5899 54.5401L103.95 31.723C109.081 26.7112 105.533 18 98.3603 18L51.6397 18C44.467 18 40.9186 26.7111 46.0497 31.723L69.4101 54.5401ZM54.5401 69.4101C57.5761 72.5184 57.5761 77.4816 54.5401 80.5899L31.723 103.95C26.7111 109.081 18 105.533 18 98.3603L18 51.6397C18 44.467 26.7112 40.9186 31.723 46.0497L54.5401 69.4101ZM95.4599 69.4101C92.4239 72.5184 92.4239 77.4816 95.4599 80.5899L118.277 103.95C123.289 109.081 132 105.533 132 98.3603L132 51.6397C132 44.467 123.289 40.9186 118.277 46.0497L95.4599 69.4101Z" fill="url(#paint0_linear_1412_44)"/>
<defs>
<linearGradient id="paint0_linear_1412_44" x1="75" y1="0" x2="75" y2="328.5" gradientUnits="userSpaceOnUse">
<stop stop-color="white"/>
<stop offset="1" stop-color="#D6F0F9" stop-opacity="0"/>
</linearGradient>
</defs>
</svg>
